<svg xmlns="http://www.w3.org/2000/svg" version="1.1" xmlns:xlink="http://www.w3.org/1999/xlink" xmlns:svgjs="http://svgjs.com/svgjs" width="1200pt" height="1200pt"><svg width="1200pt" height="1200pt" version="1.1" viewBox="0 0 1200 1200" xmlns="http://www.w3.org/2000/svg">
 <path fill="#37A34A" d="m1128 202.29h-130.29v-130.29h130.29zm-593.15 462.86v-130.3h130.29v130.29h-130.29zm130.3 24v130.27h-130.3v-130.27zm-154.3-24h-130.27v-130.3h130.27zm24-154.3v-130.27h130.29v130.27zm154.3 24h130.27v130.29h-130.27zm0-24v-130.27h130.27v130.27zm0-154.27v-130.29h130.27v130.29l-130.27-0.003906zm-24 0h-130.3v-130.29h130.29v130.29zm-154.3 0h-130.27v-130.29h130.27zm0 24v130.27h-130.27v-130.27zm-154.27 130.27h-130.29v-130.27h130.29l-0.003906 130.27zm0 24v130.29h-130.29v-130.29zm0 154.3v130.27h-130.29v-130.27zm24 0h130.27v130.27h-130.27zm130.27 154.27v130.29l-130.27-0.003906v-130.28zm24 0h130.29v130.29l-130.29-0.003906zm154.3 0h130.27v130.29l-130.27-0.003906zm0-24v-130.27h130.27v130.27zm154.27-130.27h130.29v130.27h-130.29zm0-24v-130.3h130.29v130.29h-130.29zm0-154.3v-130.27h130.29v130.27zm0-154.27v-130.29h130.29v130.29l-130.29-0.003906zm0-154.29v-130.29h130.29v130.29zm-24 0h-130.27v-130.29h130.27zm-154.27 0h-130.3v-130.29h130.29v130.29zm-154.3 0h-130.27v-130.29h130.27zm-154.27 0h-130.29v-130.29h130.29l-0.003906 130.29zm0 24v130.29l-130.29-0.003906v-130.28zm-154.29 130.29h-130.29v-130.29h130.29zm0 24v130.27h-130.29v-130.27zm0 154.27v130.29h-130.29v-130.29zm0 154.3v130.27h-130.29v-130.27zm0 154.27v130.29l-130.29-0.003906v-130.28zm24 0h130.29v130.29l-130.29-0.003906zm130.29 154.29v130.29h-130.29v-130.29zm24 0h130.27v130.29h-130.27zm154.27 0h130.29v130.29h-130.29zm154.3 0h130.27v130.29h-130.27zm154.27 0h130.29l-0.003906 130.29h-130.28zm0-24v-130.29h130.29v130.29l-130.29-0.003906zm154.29-130.29h130.29v130.29l-130.29-0.003906zm0-24v-130.27h130.29v130.27zm0-154.27v-130.3h130.29v130.29h-130.29zm0-154.3v-130.27h130.29v130.27zm0-154.27v-130.29h130.29v130.29l-130.29-0.003906zm-795.43-284.58v130.29h-130.29v-130.29zm-130.29 925.71h130.29v130.29h-130.29zm925.71 130.29v-130.29h130.29v130.29z"></path>
</svg><style>@media (prefers-color-scheme: light) { :root { filter: none; } }
@media (prefers-color-scheme: dark) { :root { filter: none; } }
</style></svg>